<svg height="512" viewBox="0 0 53 58" width="512" xmlns="http://www.w3.org/2000/svg"><g id="Page-1" fill="none" fill-rule="evenodd"><g id="071---Filter-Coffee" fill-rule="nonzero"><path id="Shape" d="m11.134 43.208c-.0559706.0002672-.1118551-.0044177-.167-.014-4.708-.789-10.967-2.601-10.967-9.194-.00785464-1.5086012.4214443-2.9871818 1.236-4.257 1.57700389-2.385305 4.26504252-3.7976195 7.124-3.743h3.64c.5522847 0 1 .4477153 1 1s-.4477153 1-1 1h-3.64c-2.17553503-.052395-4.2268749 1.0109973-5.438 2.819-.6078566.9491454-.92806844 2.0539109-.922 3.181 0 3.97 2.781 6.129 9.3 7.222.5120622.0865846.8726242.5507324.8298844 1.0683016-.0427399.5175693-.4745554.9162841-.9938844.9176984z" fill="#95a5a5"/><path id="Shape" d="m31.95 38.96c-.52-5.42-4.95-8.96-4.95-8.96l-7-2-8 2c-2.17434699 1.8754702-3.76986102 4.3311744-4.6 7.08-.26424035.9508749-.39879082 1.9330934-.4 2.92 0 6 3 8 3 8l10 2 9-2s3-2 3-8c0-.35-.02-.7-.05-1.04z" fill="#a56a43"/><path id="Shape" d="m31.95 38.96c-3.48-.28-3.83-1.96-7.95-1.96-4.5 0-4.5 2-9 2-3.98 0-4.44-1.56-7.6-1.92.83013898-2.7488256 2.42565301-5.2045298 4.6-7.08h15s4.43 3.54 4.95 8.96z" fill="#67b9cc"/><path id="Rectangle-path" d="m10 48h19v5h-19z" fill="#805333"/><path id="Shape" d="m30.29 26.71-3.29 3.29h-15v-4c0-.5522847.4477153-1 1-1h16.59c.4044441.0016958.7680455.2468472.9212679.6211476s.0658935.8040433-.2212679 1.0888524z" fill="#7f8c8d"/><path id="Shape" d="m26 15v4c-.0032948 1.1032019-.8967981 1.9967052-2 2h-9c-1.1032019-.0032948-1.9967052-.8967981-2-2v-4z" fill="#95a5a5"/><path id="Shape" d="m53 6v48h-17v-25c0-11.15-5.15-15.68-6.61-16.74l-.39-7.26c.08-.28 2.99-1.72 2.99-2h18.01c1.6568542 0 3 1.34314575 3 3z" fill="#c03a2b"/><path id="Shape" d="m31.99 3c-.0005809.28751357-.0409642.57356242-.12.85l-2.48 8.41-.22.74-9.17 1-10.17-1-2.7-9.15c-.26463544-.90759047-.08718991-1.88679048.47909671-2.64380558.56628662-.75701509 1.45552164-1.20375959 2.40090329-1.20619442h18.98c1.6548028.0049422 2.9950578 1.3451972 3 3z" fill="#e64c3c"/><path id="Shape" d="m53 52v6h-49c-1.65685425 0-3-1.3431458-3-3s1.34314575-3 3-3z" fill="#e64c3c"/><rect id="Rectangle-path" fill="#802f34" height="21" rx="2" width="9" x="40" y="27"/><g fill="#bdc3c7"><path id="Shape" d="m42 8h-2c-.5522847 0-1-.44771525-1-1s.4477153-1 1-1h2c.5522847 0 1 .44771525 1 1s-.4477153 1-1 1z"/><path id="Shape" d="m49 8h-2c-.5522847 0-1-.44771525-1-1s.4477153-1 1-1h2c.5522847 0 1 .44771525 1 1s-.4477153 1-1 1z"/><path id="Shape" d="m42 12h-2c-.5522847 0-1-.4477153-1-1s.4477153-1 1-1h2c.5522847 0 1 .4477153 1 1s-.4477153 1-1 1z"/><path id="Shape" d="m49 12h-2c-.5522847 0-1-.4477153-1-1s.4477153-1 1-1h2c.5522847 0 1 .4477153 1 1s-.4477153 1-1 1z"/><path id="Shape" d="m42 16h-2c-.5522847 0-1-.4477153-1-1s.4477153-1 1-1h2c.5522847 0 1 .4477153 1 1s-.4477153 1-1 1z"/><path id="Shape" d="m49 16h-2c-.5522847 0-1-.4477153-1-1s.4477153-1 1-1h2c.5522847 0 1 .4477153 1 1s-.4477153 1-1 1z"/><path id="Shape" d="m42 20h-2c-.5522847 0-1-.4477153-1-1s.4477153-1 1-1h2c.5522847 0 1 .4477153 1 1s-.4477153 1-1 1z"/><path id="Shape" d="m49 20h-2c-.5522847 0-1-.4477153-1-1s.4477153-1 1-1h2c.5522847 0 1 .4477153 1 1s-.4477153 1-1 1z"/><path id="Shape" d="m42 24h-2c-.5522847 0-1-.4477153-1-1s.4477153-1 1-1h2c.5522847 0 1 .4477153 1 1s-.4477153 1-1 1z"/><path id="Shape" d="m49 24h-2c-.5522847 0-1-.4477153-1-1s.4477153-1 1-1h2c.5522847 0 1 .4477153 1 1s-.4477153 1-1 1z"/><path id="Shape" d="m47 49h-5c-1.6568542 0-3-1.3431458-3-3v-17c0-1.6568542 1.3431458-3 3-3h5c1.6568542 0 3 1.3431458 3 3v17c0 1.6568542-1.3431458 3-3 3zm-5-21c-.5522847 0-1 .4477153-1 1v17c0 .5522847.4477153 1 1 1h5c.5522847 0 1-.4477153 1-1v-17c0-.5522847-.4477153-1-1-1z"/><path id="Shape" d="m29.17 13-.54 1.85c-.3733614 1.2742817-1.5421474 2.1498531-2.87 2.15h-12.52c-1.3278526-.0001469-2.4966386-.8757183-2.87-2.15l-.54-1.85z"/></g></g></g></svg>