<svg id="Layer_1" height="512" viewBox="0 0 128 128" width="512" xmlns="http://www.w3.org/2000/svg" data-name="Layer 1"><path d="m83.06 30.707h-2.712a4.76 4.76 0 0 1 -4.54-3.35 5.666 5.666 0 0 0 3.7-5.306v-.5a5.663 5.663 0 0 0 -5.656-5.656h-10.692a5.663 5.663 0 0 0 -5.66 5.655v.5a5.666 5.666 0 0 0 3.7 5.306 4.76 4.76 0 0 1 -4.54 3.35h-2.712a10.6 10.6 0 0 0 -10.583 10.584 1.75 1.75 0 0 0 1.75 1.75h46.778a1.75 1.75 0 0 0 1.75-1.75 10.6 10.6 0 0 0 -10.583-10.583z" fill="#ef5350"/><path d="m43.365 41.29a1.75 1.75 0 0 0 1.75 1.75h46.778a1.75 1.75 0 0 0 1.75-1.75 10.533 10.533 0 0 0 -2.44-6.75h-45.403a10.533 10.533 0 0 0 -2.435 6.75z" fill="#e53935"/><path d="m121.434 54.546a19.754 19.754 0 0 0 -15.364-4.872 19.238 19.238 0 0 0 -7.17 2.307l-.929-7.328a5.745 5.745 0 0 0 -5.715-5.114h-47.5a5.739 5.739 0 0 0 -5.712 5.087l-3.495 27.548-4.02-6.443a28.052 28.052 0 0 0 -14.582-11.66c-4.38-1.511-8.587-1.071-11.839 1.249s-5.108 6.312-5.108 10.968a1.75 1.75 0 0 0 1.75 1.75h6a12.454 12.454 0 0 1 10.629 5.9l14.083 22.58-2.542 20.045a5.75 5.75 0 0 0 5.715 6.386h65.737a5.75 5.75 0 0 0 5.712-6.413l-1.372-10.815a82.6 82.6 0 0 0 19.38-25.784l.908-1.907a20.566 20.566 0 0 0 2-8.813 19.7 19.7 0 0 0 -6.566-14.671zm-7.663 8.575a8.188 8.188 0 0 1 2.729 6.1 8.983 8.983 0 0 1 -.874 3.854l-.911 1.907a70.061 70.061 0 0 1 -10.833 16.3l-3.173-25.022a8.17 8.17 0 0 1 13.062-3.139z" fill="#fec13b"/><path d="m121.434 54.546a19.754 19.754 0 0 0 -15.364-4.872 19.238 19.238 0 0 0 -7.17 2.307l-.929-7.328a5.745 5.745 0 0 0 -5.715-5.114h-7.5a5.745 5.745 0 0 1 5.715 5.114l.929 7.328 6.813 53.739 1.372 10.815a5.75 5.75 0 0 1 -5.712 6.413h7.5a5.75 5.75 0 0 0 5.712-6.413l-1.372-10.815a82.6 82.6 0 0 0 19.38-25.784l.907-1.906a20.566 20.566 0 0 0 2-8.813 19.7 19.7 0 0 0 -6.566-14.671zm-5.808 18.525-.911 1.907a70.061 70.061 0 0 1 -10.833 16.3l-3.173-25.018a8.172 8.172 0 0 1 15.791 2.957 8.983 8.983 0 0 1 -.874 3.854z" fill="#ffa000"/><path d="m69.381 57.781a1.753 1.753 0 0 0 -1.754 0 24.167 24.167 0 0 0 0 41.86 1.752 1.752 0 0 0 1.754 0 24.168 24.168 0 0 0 0-41.86z" fill="#4db6ac"/><path d="m69.381 57.781a1.753 1.753 0 0 0 -1.754 0c-.32.185-.627.386-.936.584a24.14 24.14 0 0 1 0 40.692c.309.2.616.4.936.584a1.752 1.752 0 0 0 1.754 0 24.168 24.168 0 0 0 0-41.86z" fill="#26a69a"/><path d="m74.178 76.344a1.75 1.75 0 0 0 -2.472.129l-1.452 1.612v-5.5a1.75 1.75 0 1 0 -3.5 0v5.505l-1.454-1.617a1.75 1.75 0 1 0 -2.6 2.343l4.054 4.5v23.807a1.75 1.75 0 1 0 3.5 0v-23.807l4.054-4.5a1.749 1.749 0 0 0 -.13-2.472z" fill="#00695c"/><path d="m14 43.04a1.75 1.75 0 0 1 -1.75-1.75 10.5 10.5 0 0 1 2.313-6.749 7.532 7.532 0 0 0 0-9.5 10.5 10.5 0 0 1 -2.313-6.749 10.49 10.49 0 0 1 2.313-6.746 7.145 7.145 0 0 0 1.687-4.746 1.75 1.75 0 0 1 3.5 0 10.487 10.487 0 0 1 -2.313 6.745 7.146 7.146 0 0 0 -1.687 4.746 7.156 7.156 0 0 0 1.687 4.75 10.5 10.5 0 0 1 2.313 6.749 10.5 10.5 0 0 1 -2.313 6.749 7.156 7.156 0 0 0 -1.687 4.75 1.75 1.75 0 0 1 -1.75 1.751z" fill="#ba68c8"/><path d="m1.75 43.04a1.75 1.75 0 0 1 -1.75-1.75 10.5 10.5 0 0 1 2.313-6.749 7.156 7.156 0 0 0 1.687-4.75 7.157 7.157 0 0 0 -1.687-4.75 10.5 10.5 0 0 1 -2.313-6.749 10.49 10.49 0 0 1 2.313-6.746 7.145 7.145 0 0 0 1.687-4.746 1.75 1.75 0 0 1 3.5 0 10.487 10.487 0 0 1 -2.313 6.745 7.146 7.146 0 0 0 -1.687 4.747 7.156 7.156 0 0 0 1.687 4.75 10.5 10.5 0 0 1 2.313 6.749 10.5 10.5 0 0 1 -2.313 6.749 7.156 7.156 0 0 0 -1.687 4.75 1.75 1.75 0 0 1 -1.75 1.75z" fill="#ba68c8"/><path d="m32.462 96.515-.836 6.594 3.923-30.936-4.019-6.442c-.054-.086-.117-.165-.172-.251l-3.084 24.32z" fill="#ffa000"/></svg>